<?xml version="1.0" standalone="no"?>
<!DOCTYPE svg PUBLIC "-//W3C//DTD SVG 20010904//EN"
 "http://www.w3.org/TR/2001/REC-SVG-20010904/DTD/svg10.dtd">
<svg version="1.0" xmlns="http://www.w3.org/2000/svg"
 width="980.000000pt" height="932.000000pt" viewBox="0 0 980.000000 932.000000"
 preserveAspectRatio="xMidYMid meet">
<metadata>
Created by potrace 1.15, written by Peter Selinger 2001-2017
</metadata>
<g transform="translate(0.000000,932.000000) scale(0.100000,-0.100000)"
fill="#000000" stroke="none">
<path d="M830 9303 c-204 -34 -377 -122 -529 -267 -131 -127 -220 -276 -269
-453 l-27 -98 -3 -3790 c-2 -4171 -7 -3868 59 -4049 33 -92 110 -224 181 -307
96 -115 285 -238 438 -287 154 -49 -52 -47 3990 -47 l3795 0 100 28 c312 85
553 295 671 580 69 169 69 165 69 837 l0 605 -27 57 c-118 252 -453 294 -625
77 -18 -22 -42 -66 -55 -97 -22 -56 -22 -65 -28 -623 l-5 -566 -30 -49 c-19
-30 -49 -60 -79 -79 l-49 -30 -3752 0 -3752 0 -49 30 c-30 19 -60 49 -79 79
l-30 49 -3 3736 c-2 2697 0 3747 8 3774 14 47 71 111 124 140 l41 22 3710 3
c2685 2 3724 0 3762 -8 37 -8 65 -23 99 -53 87 -76 83 -53 84 -627 0 -278 5
-535 9 -572 17 -133 95 -243 209 -296 50 -24 69 -27 157 -27 82 0 109 4 148
22 70 33 149 113 183 186 l29 62 0 610 c0 546 -2 617 -17 677 -79 305 -277
546 -553 674 -42 19 -111 45 -153 57 l-77 22 -3825 1 c-2104 1 -3836 -1 -3850
-3z"/>
<path d="M7619 6715 c-103 -33 -201 -129 -236 -230 -12 -32 -18 -78 -17 -130
1 -149 -25 -117 613 -757 l566 -568 -2511 0 c-2788 0 -2576 5 -2684 -68 -68
-46 -123 -118 -145 -189 -26 -83 -17 -203 20 -278 37 -72 118 -147 193 -177
l57 -23 2535 -3 2534 -2 -565 -568 c-489 -490 -569 -574 -588 -619 -78 -187 7
-399 195 -485 40 -19 66 -23 144 -23 170 1 91 -66 1107 949 851 850 894 894
925 961 29 62 33 80 33 155 0 75 -4 93 -33 155 -31 67 -74 111 -925 961 -1002
1001 -935 943 -1091 950 -54 3 -97 -1 -127 -11z"/>
</g>
</svg>
